<svg id="图层_1" data-name="图层 1" xmlns="http://www.w3.org/2000/svg" viewBox="0 0 2404.6 287.48">
  <defs>
    <style>
      .cls-1 {
        fill: #231815;
      }
    </style>
  </defs>
  <title>未标题-4</title>
  <g>
    <path class="cls-1" d="M289.75,487.59C289.75,397.87,333.47,345,396.6,345s106.86,53.17,106.86,142.64c0,89.72-43.72,144.84-106.86,144.84S289.75,577.31,289.75,487.59Zm169.54,0c0-62.25-24.6-99.9-62.69-99.9s-62.68,37.65-62.68,99.9,24.6,102.1,62.68,102.1S459.29,549.83,459.29,487.59Z" transform="translate(-289.75 -344.95)"/>
    <path class="cls-1" d="M552.21,350h48.61l42.83,135.51c5.34,17.64,10.23,36.3,15.56,54.45h1.49c5.33-18.15,9.93-36.81,15.26-54.45L717.9,350h48.61v277.3H727.09V500.48c0-25.61,3.41-62.5,5.48-88.2h-1.48l-19.56,64.45L671.66,601.31H646.17l-40-124.58-19.27-64.45h-1.48c2.07,25.7,5.48,62.59,5.48,88.2V627.34H552.21Z" transform="translate(-289.75 -344.95)"/>
    <path class="cls-1" d="M828.23,350H872.4L947.68,505.9l25.05,59.2h1.48c-2.07-28.67-5.48-63.77-5.48-94.64V350h40.9v277.3H965.47L890.18,471.22l-25-58.94h-1.49c2.08,29.35,5.49,62.76,5.49,93.63V627.34H828.23Z" transform="translate(-289.75 -344.95)"/>
    <path class="cls-1" d="M1071.28,350h43v277.3h-43Z" transform="translate(-289.75 -344.95)"/>
    <path class="cls-1" d="M1163,489.62c0-90.73,49.65-144.67,111-144.67,30.38,0,54.53,16.62,69.8,35.11l-23,31.71c-12.45-14.24-27-24.08-45.95-24.08-39.42,0-67.72,38.16-67.72,100.41,0,63.26,26.08,101.59,66.69,101.59,21.49,0,38.08-11.36,51.72-28.49l23,30.86c-19.64,26.12-44.91,40.37-76.32,40.37C1211.33,632.43,1163,581.38,1163,489.62Z" transform="translate(-289.75 -344.95)"/>
    <path class="cls-1" d="M1364.19,487.59c0-89.72,43.72-142.64,106.86-142.64s106.85,53.17,106.85,142.64c0,89.72-43.72,144.84-106.85,144.84S1364.19,577.31,1364.19,487.59Zm169.54,0c0-62.25-24.6-99.9-62.68-99.9s-62.69,37.65-62.69,99.9,24.6,102.1,62.69,102.1S1533.73,549.83,1533.73,487.59Z" transform="translate(-289.75 -344.95)"/>
    <path class="cls-1" d="M1625.47,505.74V350h43V509.47c0,60.38,19.71,80.22,49,80.22,29.64,0,50.09-19.84,50.09-80.22V350h41.35v155.7c0,91.07-35.27,126.69-91.44,126.69S1625.47,596.81,1625.47,505.74Z" transform="translate(-289.75 -344.95)"/>
    <path class="cls-1" d="M1869.33,350h44.17l75.28,155.86,25,59.2h1.48c-2.08-28.67-5.49-63.77-5.49-94.64V350h40.91v277.3h-44.17l-75.28-156.12-25-58.94h-1.48c2.08,29.35,5.48,62.76,5.48,93.63V627.34h-40.9Z" transform="translate(-289.75 -344.95)"/>
    <path class="cls-1" d="M2161.28,391.42h-70V350h182.88v41.38h-69.95V627.34h-43Z" transform="translate(-289.75 -344.95)"/>
    <path class="cls-1" d="M2314.66,350h145.83v41.38H2357.64v71.07h87.14v41.38h-87.14V586H2464.2v41.38H2314.66Z" transform="translate(-289.75 -344.95)"/>
    <path class="cls-1" d="M2514,350h81.66c50.39,0,89.22,20.35,89.22,82.26,0,59.61-38.83,86.66-89.22,86.66H2557V627.34h-43Zm77.21,129.58c33.2,0,51.28-15.78,51.28-47.32,0-31.89-18.08-42.91-51.28-42.91H2557v90.23Zm-3.63,26.2,31.12-29.34,75.66,150.86H2646Z" transform="translate(-289.75 -344.95)"/>
  </g>
</svg>
