<svg id="图层_1" data-name="图层 1" xmlns="http://www.w3.org/2000/svg" xmlns:xlink="http://www.w3.org/1999/xlink" viewBox="0 0 2950.4 794.46">
  <defs>
    <style>
      .cls-1 {
        fill: #3d3d3d;
      }

      .cls-2 {
        fill: #fff;
      }

      .cls-3 {
        fill: #9b9b9b;
      }

      .cls-4 {
        fill: none;
        stroke-miterlimit: 10;
        stroke: url(#未命名的渐变_2);
      }

      .cls-5 {
        font-size: 33.62px;
        letter-spacing: 0.18em;
      }

      .cls-5, .cls-6 {
        font-family: STYuanti-SC-Bold, Yuanti SC;
        font-weight: 700;
      }

      .cls-6 {
        font-size: 160.35px;
        letter-spacing: 0.04em;
      }

      .cls-7 {
        fill: #999;
      }

      .cls-8 {
        fill: #cecece;
      }

      .cls-9 {
        fill: #d6d6d6;
      }

      .cls-10 {
        fill: #fefefe;
      }

      .cls-11 {
        fill: #231815;
      }
    </style>
    <linearGradient id="未命名的渐变_2" data-name="未命名的渐变 2" x1="155.9" y1="685.5" x2="155.9" y2="685.5" gradientUnits="userSpaceOnUse">
      <stop offset="0" stop-color="#fff"/>
      <stop offset="1"/>
    </linearGradient>
  </defs>
  <title>未标题-2</title>
  <g>
    <g>
      <path class="cls-1" d="M725.52,148.69a53,53,0,0,1,3.05,17.75V854.18a53.51,53.51,0,0,1-53.36,53.36H309.84a53.52,53.52,0,0,1-53.36-53.36V166.44a53.52,53.52,0,0,1,53.36-53.36H675.21A53.61,53.61,0,0,1,725.52,148.69Zm-40,675.21V638H499.65V823.9Zm0-209.42V428.59H499.65V614.48Zm0-265.25V217.3A29.42,29.42,0,0,0,656.19,188H328.9a29.42,29.42,0,0,0-29.31,29.35V349.23a23.66,23.66,0,0,0,23.64,23.65H661.86A23.66,23.66,0,0,0,685.5,349.23ZM485.44,823.9V638H299.59V823.9Zm0-209.42V428.59H299.59V614.48Z" transform="translate(-256.48 -113.08)"/>
      <rect class="cls-2" x="243.17" y="524.97" width="185.85" height="185.85"/>
      <path class="cls-2" d="M685.5,428.59V614.48H499.65V428.59Zm-33.41,92.92a10.06,10.06,0,0,0-10-10H602.57V472a10,10,0,0,0-17.08-7.05,9.85,9.85,0,0,0-2.94,7.05v39.53H543a10,10,0,0,0-7,17.08,9.88,9.88,0,0,0,7,2.94h39.53v39.53a10.06,10.06,0,0,0,10,10,10.06,10.06,0,0,0,10-10V531.54H642.1A10,10,0,0,0,652.09,521.51Z" transform="translate(-256.48 -113.08)"/>
      <path class="cls-2" d="M685.5,217.3V349.23a23.66,23.66,0,0,1-23.64,23.65H323.23a23.66,23.66,0,0,1-23.64-23.65V217.3A29.42,29.42,0,0,1,328.9,188H656.19A29.42,29.42,0,0,1,685.5,217.3Z" transform="translate(-256.48 -113.08)"/>
      <path d="M649.15,514.47a9.9,9.9,0,0,1,2.94,7,10,10,0,0,1-10,10H602.57v-20H642.1A9.82,9.82,0,0,1,649.15,514.47Z" transform="translate(-256.48 -113.08)"/>
      <path d="M602.57,531.54v39.53a10.06,10.06,0,0,1-10,10,10.06,10.06,0,0,1-10-10V531.54Z" transform="translate(-256.48 -113.08)"/>
      <rect x="326.06" y="398.44" width="20.02" height="20.02"/>
      <path d="M602.57,472v39.53h-20V472a9.85,9.85,0,0,1,2.94-7.05A10,10,0,0,1,602.57,472Z" transform="translate(-256.48 -113.08)"/>
      <path d="M582.55,511.52v20H543a10,10,0,0,1-10-10,10,10,0,0,1,10-10Z" transform="translate(-256.48 -113.08)"/>
      <rect class="cls-2" x="43.11" y="524.97" width="185.85" height="185.85"/>
      <rect class="cls-2" x="43.11" y="315.51" width="185.85" height="185.89"/>
    </g>
    <rect class="cls-3" x="43.1" y="179.13" width="385.91" height="80.68"/>
    <path class="cls-4" d="M155.9,685.5" transform="translate(-256.48 -113.08)"/>
    <g>
      <path d="M334.46,686H350.9v57.16H334.46Z" transform="translate(-256.48 -113.08)"/>
      <path d="M377.65,692.6c0,3.84-3.24,6.86-8.48,6.86-5,0-8.27-3-8.24-6.86s3.25-6.89,8.36-6.89S377.58,688.63,377.65,692.6Zm-16.59,50.52V703.51h16.45v39.61Z" transform="translate(-256.48 -113.08)"/>
      <path d="M387.67,717c0-5.28-.19-9.83-.37-13.49h13.78l.66,4.93h.32c1.64-2,5.56-5.82,13.26-5.82,5.72,0,10.18,2.36,12.12,6.3h.18a17.69,17.69,0,0,1,14.07-6.3c9.66,0,15.22,6.18,15.22,17.19v23.31H441V722c0-4.91-1.62-7.73-5.27-7.73a5.13,5.13,0,0,0-5,3.36,9.07,9.07,0,0,0-.43,2.92v22.58H414.32V721.59c0-4.43-1.53-7.33-5.24-7.33a5.33,5.33,0,0,0-5,3.24,7.3,7.3,0,0,0-.48,2.94v22.68H387.67Z" transform="translate(-256.48 -113.08)"/>
    </g>
    <text class="cls-5" transform="translate(94.01 659.72) scale(0.98 1)">x→∞</text>
    <text class="cls-6" transform="translate(262.71 625.2) scale(1.07 1)">...</text>
    <text x="-256.48" y="-113.08"/>    <rect class="cls-7" x="43.1" y="269.3" width="38.59" height="31.22"/>
    <rect class="cls-7" x="101.23" y="269.73" width="38.59" height="31.22"/>
    <rect class="cls-8" x="160.55" y="269.73" width="38.59" height="31.22"/>
    <rect class="cls-8" x="216.76" y="269.73" width="101.67" height="31.22"/>
    <rect class="cls-7" x="362.44" y="269.3" width="65.79" height="31.22"/>
    <rect class="cls-7" x="265.33" y="269.73" width="53.1" height="31.22"/>
    <circle class="cls-1" cx="136.03" cy="408.46" r="64.81"/>
    <circle class="cls-9" cx="136.03" cy="408.46" r="63.11"/>
    <circle class="cls-10" cx="136.03" cy="408.46" r="45.83"/>
    <rect class="cls-1" x="133.49" y="348.91" width="5.08" height="59.54" rx="2.54"/>
    <rect class="cls-1" x="133.49" y="402.5" width="43.83" height="5.96" rx="2.98"/>
  </g>
  <g>
    <path class="cls-11" d="M802.28,504.38c0-89.72,43.72-142.63,106.85-142.63S1016,414.92,1016,504.38c0,89.72-43.72,144.84-106.86,144.84S802.28,594.1,802.28,504.38Zm169.54,0c0-62.24-24.6-99.89-62.69-99.89s-62.68,37.65-62.68,99.89,24.6,102.1,62.68,102.1S971.82,566.63,971.82,504.38Z" transform="translate(-256.48 -113.08)"/>
    <path class="cls-11" d="M1064.74,366.83h48.61l42.83,135.52c5.34,17.64,10.23,36.29,15.56,54.44h1.49c5.33-18.15,9.93-36.8,15.26-54.44l41.94-135.52H1279V644.14h-39.42V517.27c0-25.61,3.41-62.5,5.48-88.19h-1.48l-19.56,64.45L1184.19,618.1H1158.7l-40-124.57-19.27-64.45h-1.48c2.07,25.69,5.48,62.58,5.48,88.19V644.14h-38.68Z" transform="translate(-256.48 -113.08)"/>
    <path class="cls-11" d="M1340.76,366.83h44.17l75.28,155.87,25,59.19h1.48c-2.07-28.66-5.48-63.77-5.48-94.64V366.83h40.9V644.14H1478L1402.71,488l-25-58.94h-1.49c2.08,29.34,5.49,62.75,5.49,93.62V644.14h-40.91Z" transform="translate(-256.48 -113.08)"/>
    <path class="cls-11" d="M1583.81,366.83h43V644.14h-43Z" transform="translate(-256.48 -113.08)"/>
    <path class="cls-11" d="M1675.54,506.42c0-90.74,49.65-144.67,111-144.67,30.39,0,54.54,16.62,69.81,35.1l-23,31.72c-12.45-14.25-27-24.08-46-24.08-39.42,0-67.72,38.16-67.72,100.4,0,63.26,26.08,101.59,66.69,101.59,21.49,0,38.08-11.36,51.72-28.49l23,30.87c-19.64,26.12-44.91,40.36-76.32,40.36C1723.86,649.22,1675.54,598.17,1675.54,506.42Z" transform="translate(-256.48 -113.08)"/>
    <path class="cls-11" d="M1876.72,504.38c0-89.72,43.72-142.63,106.86-142.63s106.85,53.17,106.85,142.63c0,89.72-43.72,144.84-106.85,144.84S1876.72,594.1,1876.72,504.38Zm169.54,0c0-62.24-24.6-99.89-62.68-99.89s-62.69,37.65-62.69,99.89,24.6,102.1,62.69,102.1S2046.26,566.63,2046.26,504.38Z" transform="translate(-256.48 -113.08)"/>
    <path class="cls-11" d="M2138,522.53V366.83h43V526.26c0,60.38,19.71,80.22,49.05,80.22,29.64,0,50.09-19.84,50.09-80.22V366.83h41.35v155.7c0,91.08-35.27,126.69-91.44,126.69S2138,613.61,2138,522.53Z" transform="translate(-256.48 -113.08)"/>
    <path class="cls-11" d="M2381.86,366.83H2426l75.28,155.87,25.05,59.19h1.48c-2.08-28.66-5.49-63.77-5.49-94.64V366.83h40.91V644.14h-44.17L2443.81,488l-25-58.94h-1.48c2.08,29.34,5.48,62.75,5.48,93.62V644.14h-40.9Z" transform="translate(-256.48 -113.08)"/>
    <path class="cls-11" d="M2673.81,408.22h-69.95V366.83h182.88v41.39h-69.95V644.14h-43Z" transform="translate(-256.48 -113.08)"/>
    <path class="cls-11" d="M2827.19,366.83H2973v41.39H2870.17v71.06h87.14v41.39h-87.14v82.08h106.56v41.39H2827.19Z" transform="translate(-256.48 -113.08)"/>
    <path class="cls-11" d="M3026.52,366.83h81.66c50.39,0,89.22,20.36,89.22,82.26,0,59.62-38.83,86.67-89.22,86.67H3069.5V644.14h-43Zm77.21,129.58c33.2,0,51.28-15.77,51.28-47.32,0-31.88-18.08-42.91-51.28-42.91H3069.5v90.23Zm-3.63,26.21,31.12-29.35,75.66,150.87h-48.31Z" transform="translate(-256.48 -113.08)"/>
  </g>
</svg>
